# written by convert_mb_to_amc()
:FULLY-SPECIFIED
:DEGREES
152
upperback -3.653086 -5.549798 0.550699
rfoot -47.495407 -39.153316
lradius 25.449030
lthumb 11.754399 -315.237885
rradius 29.041441
lwrist -14.714297
rhand -19.568083 -18.658922
rhumerus -50.683891 -1.083001 -82.356621
lowerneck -3.906229 -1.260231 -2.319123
lhand -14.388582 15.111802
ltibia 44.969059
head 1.665151 -0.803095 0.584398
rwrist 13.459306
lfingers 7.125020
rtoes 12.174053
lowerback -1.380189 -4.157338 3.223539
rfingers 7.125020
lclavicle -0.000000 -0.000000
upperneck 3.145455 -1.584107 0.749396
rfemur -17.984497 0.594755 26.316599
thorax -3.241420 -2.868650 -1.132768
rclavicle -0.000000 -0.000000
rtibia 42.142632
lfoot -15.245500 27.097700
lhumerus -43.434574 6.391834 80.967499
rthumb 6.756792 -768.530823
root 39.136215 18.163565 -23.511713 729.102905 322.576508 359.525482
ltoes 17.817240
lfemur -22.649275 -8.625006 -21.540142
153
upperback -3.280379 -5.873567 0.403648
rfoot -31.895689 -30.045238
lradius 26.399477
lthumb 11.560994 -315.099731
rradius 29.290392
lwrist -13.594953
rhand -19.426884 -18.410309
rhumerus -52.315933 -2.414605 -82.737831
lowerneck -2.993551 -1.385784 -1.866831
lhand -14.589136 15.239388
ltibia 43.705669
head 0.708001 -0.891771 0.709274
rwrist 12.721931
lfingers 7.125020
rtoes -5.428266
lowerback -1.631574 -4.387629 2.825855
rfingers 7.125020
lclavicle 0.000000 0.000000
upperneck 0.595219 -1.800819 1.396116
rfemur -23.735479 -13.173220 24.257570
thorax -2.703386 -3.011523 -1.099568
rclavicle 0.000000 0.000000
rtibia 55.479931
lfoot -15.245500 27.097700
lhumerus -43.895618 5.214679 81.545319
rthumb 6.893074 -768.278015
root 38.390465 18.063871 -22.746889 730.397705 322.995331 360.382080
ltoes 15.615701
lfemur -20.296143 -7.567658 -22.198366
154
upperback -3.181868 -7.223629 0.272533
rfoot -22.184229 -25.386393
lradius 25.770956
lthumb 12.337784 -315.185608
rradius 28.093758
lwrist -14.839461
rhand -19.337420 -18.175631
rhumerus -56.170868 -4.887294 -83.624367
lowerneck -3.286072 -1.244002 -1.569771
lhand -13.783570 15.198429
ltibia 33.796116
head 0.500990 -0.798307 0.674518
rwrist 13.005059
lfingers 7.125020
rtoes -5.723801
lowerback -1.956915 -5.389280 1.813910
rfingers 7.125020
lclavicle -0.000000 -0.000000
upperneck -0.214560 -1.616053 1.437774
rfemur -53.546467 -28.740305 28.928167
thorax -2.367965 -3.662573 -0.702405
rclavicle -0.000000 -0.000000
rtibia 64.643242
lfoot -15.245500 27.097700
lhumerus -43.782650 4.258203 81.245392
rthumb 6.979428 -768.040649
root 36.615833 18.020121 -21.320499 733.432861 325.412537 362.621216
ltoes 10.155132
lfemur -12.538523 -8.616171 -22.066576
155
upperback -3.260252 -8.666590 0.664087
rfoot -15.987392 -30.940727
lradius 22.280825
lthumb 12.674653 -315.398315
rradius 21.866604
lwrist -17.641113
rhand -13.851952 -12.051817
rhumerus -56.168106 -9.592645 -76.031227
lowerneck -4.172374 -1.830292 -1.493736
lhand -13.434172 15.006169
ltibia 13.922802
head -0.339485 -1.195236 0.607487
rwrist 21.598373
lfingers 7.125020
rtoes -5.381707
lowerback -2.007081 -6.470384 2.365665
rfingers 7.125020
lclavicle -0.000000 0.000000
upperneck -3.471786 -2.393903 1.272874
rfemur -70.973099 -26.351032 25.317785
thorax -2.485423 -4.394814 -0.586096
rclavicle -0.000000 0.000000
rtibia 47.722477
lfoot -15.245500 27.097700
lhumerus -41.221146 5.349686 79.840714
rthumb 12.271923 -761.671631
root 33.352245 17.216028 -19.104713 737.027771 330.428101 365.409241
ltoes -7.225143
lfemur 4.338044 -17.698030 -19.657721
156
upperback -4.744590 -6.398380 1.871190
rfoot -26.793200 -31.414101
lradius 20.453400
lthumb 10.759200 -317.546997
rradius 20.943199
lwrist -19.684299
rhand -16.962700 -16.573799
rhumerus -41.718601 -4.874930 -70.031601
lowerneck -4.914140 -1.006780 -0.533937
lhand -15.420500 12.748900
ltibia 33.638302
head -2.731490 -0.826199 -0.284165
rwrist 25.079599
lfingers 7.125020
rtoes 4.338420
lowerback 1.087880 -4.994420 6.255990
rfingers 7.125020
lclavicle 0.000000 -0.000000
upperneck -11.240900 -1.615740 -1.230960
rfemur -72.406197 -14.194900 29.095600
thorax -6.031570 -3.434880 -1.087760
rclavicle 0.000000 -0.000000
rtibia 73.683601
lfoot -15.245500 27.097700
lhumerus -44.087799 13.695000 68.425400
rthumb 9.271360 -766.349976
root 28.241224 16.562082 -16.248657 744.132019 325.579987 362.085999
ltoes -2.906170
lfemur 1.127840 -11.198400 -10.363000
157
upperback -3.454773 -4.292283 1.030159
rfoot -17.963556 -27.241669
lradius 23.547264
lthumb 11.951098 -317.560486
rradius 32.447323
lwrist -13.131109
rhand -20.469460 -15.352208
rhumerus -34.835903 4.683484 -70.396622
lowerneck -2.729046 -3.689121 -1.176185
lhand -14.184585 12.800909
ltibia 57.494411
head -0.664962 -2.458565 0.124470
rwrist 14.188766
lfingers 7.125020
rtoes -14.898277
lowerback 1.170871 -3.348469 4.919868
rfingers 7.125020
lclavicle -0.000000 0.000000
upperneck -3.735986 -4.927810 -0.180752
rfemur -28.708166 -15.331526 28.599886
thorax -4.516039 -2.294994 -1.449547
rclavicle -0.000000 0.000000
rtibia 58.219952
lfoot -15.245500 27.097700
lhumerus -45.340858 5.547630 70.359520
rthumb 5.886599 -765.250427
root 22.778482 18.676046 -12.688330 734.469666 327.644928 360.233093
ltoes -0.099954
lfemur -31.113928 -7.755517 -15.669604
158
upperback -2.301684 -4.527108 1.132406
rfoot -20.079533 -28.408358
lradius 28.744055
lthumb 13.321170 -317.832947
rradius 31.903641
lwrist -6.697264
rhand -20.179575 -16.590780
rhumerus -46.375301 1.571829 -70.727608
lowerneck -4.046493 -1.843821 -0.701839
lhand -12.763453 12.613255
ltibia 50.001942
head 1.577733 -1.216529 0.017324
rwrist 11.750352
lfingers 7.125020
rtoes -3.457105
lowerback 1.089260 -3.497050 4.722563
rfingers 7.125020
lclavicle -0.000000 0.000000
upperneck 2.872481 -2.416603 -0.123869
rfemur -33.567207 -14.705037 25.305584
thorax -3.258317 -2.361207 -1.279860
rclavicle -0.000000 0.000000
rtibia 58.820194
lfoot -15.245500 27.097700
lhumerus -47.739357 0.813658 78.167244
rthumb 6.166473 -766.481140
root 17.259144 18.754665 -8.681650 728.847046 323.397736 356.132324
ltoes 11.239953
lfemur -30.185385 -13.578273 -19.624207
159
upperback -1.571756 -6.768088 -0.614148
rfoot 7.113768 -35.467682
lradius 36.444809
lthumb 11.303890 -318.416260
rradius 27.863192
lwrist 1.717881
rhand -22.920715 -14.447442
rhumerus -64.806244 -2.998840 -73.081017
lowerneck -3.601995 1.919728 2.448569
lhand -14.855734 11.908371
ltibia 51.068691
head 2.769967 1.250748 -0.876958
rwrist 10.854873
lfingers 7.125020
rtoes 14.297738
lowerback 0.717079 -5.089186 2.204658
rfingers 7.125020
lclavicle 0.000000 0.000000
upperneck 6.554468 2.517090 -1.686639
rfemur -49.901684 -15.795793 25.616121
thorax -2.344113 -3.425414 -1.649857
rclavicle 0.000000 0.000000
rtibia 39.377781
lfoot -15.245500 27.097700
lhumerus -44.449310 -9.213226 88.720322
rthumb 3.519643 -764.398438
root 11.727294 17.480612 -5.091053 721.709167 316.425446 358.838196
ltoes -12.801040
lfemur -0.005130 -6.180056 -20.637526
